<svg xmlns="http://www.w3.org/2000/svg" viewBox="0 0 512 512">
  <defs>
    <linearGradient id="bg-gradient" x1="0%" y1="0%" x2="100%" y2="100%">
      <stop offset="0%" style="stop-color:#1a1a1a"/>
      <stop offset="100%" style="stop-color:#121212"/>
    </linearGradient>
    <linearGradient id="glow" x1="0%" y1="0%" x2="100%" y2="100%">
      <stop offset="0%" style="stop-color:#6366f1"/>
      <stop offset="100%" style="stop-color:#4f46e5"/>
    </linearGradient>
    <filter id="neon-glow" x="-50%" y="-50%" width="200%" height="200%">
      <feGaussianBlur stdDeviation="6" result="coloredBlur"/>
      <feMerge>
        <feMergeNode in="coloredBlur"/>
        <feMergeNode in="SourceGraphic"/>
      </feMerge>
    </filter>
  </defs>
  
  <!-- Full background for maskable icon (no rounded corners - OS will apply mask) -->
  <rect width="512" height="512" fill="url(#bg-gradient)"/>
  
  <!-- Subtle radial glow -->
  <circle cx="256" cy="180" r="160" fill="#6366f1" opacity="0.1"/>
  
  <!-- Math symbols - centered for safe zone (80% center) -->
  <g filter="url(#neon-glow)" fill="url(#glow)" transform="translate(256,256) scale(0.7) translate(-256,-256)">
    <!-- Plus sign -->
    <rect x="120" y="165" width="80" height="20" rx="4"/>
    <rect x="150" y="135" width="20" height="80" rx="4"/>
    
    <!-- Minus sign -->
    <rect x="312" y="165" width="80" height="20" rx="4"/>
    
    <!-- Equals sign -->
    <rect x="200" y="270" width="112" height="16" rx="4"/>
    <rect x="200" y="302" width="112" height="16" rx="4"/>
    
    <!-- Percentage symbol -->
    <circle cx="168" cy="380" r="24" fill="none" stroke="url(#glow)" stroke-width="12"/>
    <circle cx="344" cy="380" r="24" fill="none" stroke="url(#glow)" stroke-width="12"/>
    <rect x="224" y="340" width="16" height="80" rx="4" transform="rotate(45 256 380)"/>
  </g>
  
  <!-- CAT text -->
  <text x="256" y="440" font-family="system-ui, -apple-system, sans-serif" font-size="40" font-weight="700" fill="#f5f5f7" text-anchor="middle" letter-spacing="6">CAT</text>
</svg>

